<svg width="28" height="28" viewBox="0 0 28 28" fill="none" xmlns="http://www.w3.org/2000/svg">
<g clip-path="url(#clip0_5950_3081)">
<path d="M2.97895 0.0395927C2.69728 0.0829277 2.12853 0.288759 1.81436 0.45126C1.38645 0.678759 0.676862 1.38834 0.449362 1.81626C0.357279 1.99501 0.221862 2.30917 0.151445 2.52042L0.0268619 2.89959V7.47667C0.0268619 12.4329 0.0214452 12.2975 0.324779 12.98C0.720195 13.8575 1.6302 14.67 2.4752 14.8921L2.7027 14.9517L2.71895 16.0783C2.7352 17.3296 2.7677 17.4433 3.10353 17.6546C3.3202 17.79 3.6777 17.8062 3.88895 17.6925C3.9702 17.6492 4.60936 17.0371 5.30811 16.3383L6.58103 15.06H6.8302H7.08478L7.11186 13.7979C7.13353 12.7092 7.14978 12.4871 7.2527 12.1404C7.77811 10.3583 9.09978 9.03666 10.8873 8.495C11.2881 8.37583 11.326 8.37583 15.1556 8.35417L19.0123 8.33791V5.7C19.0123 2.80751 19.0014 2.68834 18.6819 2.02209C18.346 1.31792 17.7664 0.738342 17.0352 0.375427C16.2498 -0.0145721 16.5748 0.00167656 9.47895 0.0125103C5.97978 0.0125103 3.05478 0.0287609 2.97895 0.0395927Z" fill="black"/>
<path d="M11.3315 10.0772C10.1074 10.3967 9.1432 11.3772 8.82362 12.6121C8.72612 12.9967 8.7207 13.2459 8.7207 17.4438C8.7207 20.3309 8.74237 21.9776 8.78029 22.1888C8.80737 22.3621 8.9482 22.7413 9.08362 23.023C9.50612 23.895 10.2645 24.545 11.2395 24.8755L11.6186 25L16.3853 25.0163L21.152 25.0325L22.479 26.3488C23.8928 27.7571 23.9524 27.8005 24.3695 27.7084C24.559 27.6705 24.8299 27.4592 24.9328 27.2805C24.9761 27.2046 25.0086 26.7821 25.0249 26.0346L25.052 24.9025L25.2686 24.8375C25.6315 24.7292 26.1353 24.4475 26.482 24.1605C27.094 23.6513 27.5599 22.8117 27.679 22.0155C27.7115 21.7934 27.7332 19.9138 27.7332 17.3896C27.7332 12.6338 27.7386 12.7096 27.3595 11.9459C26.9965 11.2147 26.417 10.6351 25.7128 10.2992C24.9978 9.95799 25.3065 9.96882 18.1999 9.97424C12.0032 9.97424 11.7107 9.97965 11.3315 10.0772Z" fill="black"/>
<path d="M18.6362 18.1736C18.5905 18.1829 18.5494 18.2077 18.52 18.2438C18.4905 18.2799 18.4744 18.3251 18.4744 18.3717V18.8067C18.4744 18.8872 18.4424 18.9643 18.3855 19.0212C18.3287 19.0781 18.2515 19.11 18.1711 19.11C18.0906 19.11 18.0135 19.0781 17.9566 19.0212C17.8997 18.9643 17.8677 18.8872 17.8677 18.8067V17.9327C17.8677 17.856 17.8969 17.7821 17.9492 17.7259C18.0016 17.6698 18.0733 17.6356 18.1498 17.6302C18.5094 17.6051 19.0382 17.4826 19.4673 17.209C19.8861 16.9416 20.1933 16.5447 20.1933 15.9443C20.1933 15.3659 19.9787 14.9649 19.6671 14.699C19.348 14.4266 18.9039 14.2774 18.4271 14.2588C17.44 14.2202 16.5201 14.7259 16.3438 15.5134C16.3262 15.5919 16.2782 15.6602 16.2103 15.7033C16.1423 15.7464 16.06 15.7607 15.9815 15.7432C15.903 15.7256 15.8347 15.6776 15.7916 15.6096C15.7485 15.5417 15.7341 15.4594 15.7517 15.3809C15.8864 14.7795 16.2748 14.3393 16.7778 14.0511C17.2833 13.7613 17.8962 13.6309 18.4509 13.6527C19.0309 13.6754 19.6157 13.8576 20.061 14.2376C20.514 14.6242 20.7999 15.1969 20.7999 15.9443C20.7999 16.8013 20.3409 17.3712 19.7937 17.7204C19.4232 17.9568 19.0048 18.0987 18.6362 18.1736ZM17.6655 20.6267C17.6655 20.4658 17.7294 20.3115 17.8432 20.1977C17.957 20.0839 18.1113 20.02 18.2722 20.02C18.4331 20.02 18.5874 20.0839 18.7011 20.1977C18.8149 20.3115 18.8788 20.4658 18.8788 20.6267C18.8788 20.7876 18.8149 20.9419 18.7011 21.0557C18.5874 21.1694 18.4331 21.2333 18.2722 21.2333C18.1113 21.2333 17.957 21.1694 17.8432 21.0557C17.7294 20.9419 17.6655 20.7876 17.6655 20.6267Z" fill="#F8F8F8" stroke="#F8F8F8" stroke-width="0.404439" stroke-linecap="round" stroke-linejoin="round"/>
</g>
<defs>
<clipPath id="clip0_5950_3081">
<rect width="27.7333" height="27.7333" fill="white"/>
</clipPath>
</defs>
</svg>
