<svg width="908" height="158" viewBox="0 0 908 158" fill="none" xmlns="http://www.w3.org/2000/svg">
<rect width="908" height="158" fill="white"/>
<path d="M24.7497 20.6231V29.4398C24.7497 31.1814 23.4747 32.7314 21.7413 32.8981C21.2783 32.9444 20.8107 32.893 20.3687 32.7473C19.9268 32.6016 19.5203 32.3648 19.1755 32.0523C18.8308 31.7397 18.5554 31.3583 18.3672 30.9327C18.179 30.5071 18.0822 30.0468 18.083 29.5814V19.2814C18.083 18.1898 18.8663 17.1981 19.9497 17.0898C20.2402 17.0594 20.5339 17.0904 20.8116 17.1809C21.0894 17.2714 21.345 17.4193 21.5619 17.6149C21.7788 17.8106 21.9521 18.0497 22.0706 18.3167C22.1891 18.5837 22.2501 18.8726 22.2497 19.1648V27.9148C22.2497 28.3731 21.8747 28.7481 21.4163 28.7481C20.958 28.7481 20.583 28.3731 20.583 27.9148V20.6231C20.583 20.2814 20.2997 19.9981 19.958 19.9981C19.6163 19.9981 19.333 20.2814 19.333 20.6231V27.7981C19.333 28.8898 20.1163 29.8814 21.1997 29.9898C21.4902 30.0201 21.7839 29.9891 22.0616 29.8986C22.3394 29.8081 22.595 29.6602 22.8119 29.4646C23.0288 29.2689 23.2021 29.0298 23.3206 28.7628C23.4391 28.4958 23.5001 28.2069 23.4997 27.9148V19.3064C23.4997 17.5648 22.2247 16.0148 20.4913 15.8481C20.0284 15.8025 19.5611 15.8543 19.1194 16.0002C18.6777 16.1462 18.2715 16.383 17.9269 16.6954C17.5823 17.0078 17.3069 17.389 17.1185 17.8143C16.9301 18.2396 16.8329 18.6996 16.833 19.1648V29.3898C16.833 31.7814 18.583 33.9231 20.9663 34.1481C23.708 34.3981 25.9997 32.2648 25.9997 29.5814V20.6231C25.9997 20.2814 25.7163 19.9981 25.3747 19.9981C25.033 19.9981 24.7497 20.2814 24.7497 20.6231Z" fill="black"/>
<path d="M64.3 27.8276C63.86 27.1876 63.08 26.8276 62.18 26.8276H57.52C57.22 26.8276 56.92 26.7076 56.74 26.4676C56.54 26.2276 56.46 25.9276 56.5 25.5876L57.08 21.8676C57.32 20.7676 56.58 19.5076 55.48 19.1276C54.44 18.7476 53.24 19.2676 52.74 20.0076L48.12 26.8876V26.0276C48.12 24.3476 47.4 23.6676 45.64 23.6676H44.48C42.72 23.6876 42 24.3676 42 26.0476V37.4676C42 39.1476 42.72 39.8276 44.48 39.8276H45.64C47.32 39.8276 48.02 39.1676 48.08 37.6476L51.58 40.3476C52.08 40.8276 53.14 41.0876 53.9 41.0876H58.32C59.84 41.0876 61.36 39.9476 61.72 38.5476L64.52 30.0476C64.82 29.2276 64.74 28.4476 64.3 27.8276Z" fill="#0F0F0F"/>
<path d="M82.2215 38.26H81.0615C79.3815 38.26 78.6815 38.92 78.6015 40.44L75.1015 37.74C74.6215 37.26 73.5415 37 72.7815 37H68.3615C66.8415 37 65.3215 38.14 64.9615 39.54L62.1615 48.04C61.8615 48.86 61.9615 49.64 62.3815 50.26C62.8215 50.9 63.6015 51.26 64.5015 51.26H69.1615C69.4615 51.26 69.7615 51.38 69.9415 51.62C70.1415 51.86 70.2215 52.16 70.1815 52.5L69.6015 56.2201C69.3615 57.3201 70.1015 58.5801 71.2015 58.9601C72.2415 59.3401 73.4415 58.8201 73.9415 58.0801L78.5615 51.2V52.06C78.5615 53.7401 79.2815 54.4201 81.0415 54.4201H82.2015C83.9615 54.4201 84.6815 53.7401 84.6815 52.06V40.6C84.7015 38.94 83.9815 38.26 82.2215 38.26Z" fill="#0F0F0F"/>
<rect x="95" y="15" width="24" height="24" rx="12" fill="#F8F8F8"/>
<path d="M98.9961 28H115C115.265 28 115.52 27.8946 115.707 27.7071C115.895 27.5196 116 27.2652 116 27C116 26.7348 115.895 26.4804 115.707 26.2929C115.52 26.1054 115.265 26 115 26H98.9961C98.7309 26 98.4765 26.1054 98.289 26.2929C98.1015 26.4804 97.9961 26.7348 97.9961 27C97.9961 27.2652 98.1015 27.5196 98.289 27.7071C98.4765 27.8946 98.7309 28 98.9961 28Z" fill="#808080"/>
<path d="M139 35C136.878 35 134.843 34.1571 133.343 32.6569C131.843 31.1566 131 29.1217 131 27C131 24.8783 131.843 22.8434 133.343 21.3431C134.843 19.8429 136.878 19 139 19C141.122 19 143.157 19.8429 144.657 21.3431C146.157 22.8434 147 24.8783 147 27C147 29.1217 146.157 31.1566 144.657 32.6569C143.157 34.1571 141.122 35 139 35ZM129 27C129 32.523 133.477 37 139 37C144.523 37 149 32.523 149 27C149 21.477 144.523 17 139 17C133.477 17 129 21.477 129 27Z" fill="black"/>
<path d="M139 29.0001C139.265 29.0001 139.52 28.8947 139.707 28.7072C139.895 28.5196 140 28.2653 140 28.0001V22.0001C140 21.7348 139.895 21.4805 139.707 21.2929C139.52 21.1054 139.265 21.0001 139 21.0001C138.735 21.0001 138.48 21.1054 138.293 21.2929C138.105 21.4805 138 21.7348 138 22.0001V28.0001C138 28.2653 138.105 28.5196 138.293 28.7072C138.48 28.8947 138.735 29.0001 139 29.0001Z" fill="black"/>
<path d="M138.293 32.0001C138.48 32.1876 138.735 32.293 139 32.293C139.265 32.293 139.52 32.1876 139.707 32.0001C139.895 31.8125 140 31.5582 140 31.293C140 31.0278 139.895 30.7734 139.707 30.5859C139.52 30.3983 139.265 30.293 139 30.293C138.735 30.293 138.48 30.3983 138.293 30.5859C138.105 30.7734 138 31.0278 138 31.293C138 31.5582 138.105 31.8125 138.293 32.0001Z" fill="black"/>
<path d="M173.8 19.6129L180.501 30.7739C181.464 32.3769 180.991 34.4859 179.444 35.4839C178.925 35.8201 178.32 35.9992 177.701 35.9999H164.298C162.477 35.9999 161 34.4699 161 32.5809C161 31.9419 161.173 31.3169 161.498 30.7739L168.2 19.6129C169.162 18.0099 171.196 17.5189 172.743 18.5169C173.171 18.7929 173.533 19.1679 173.8 19.6129ZM171.58 20.4519C171.458 20.3731 171.32 20.32 171.177 20.2957C171.033 20.2715 170.886 20.2765 170.745 20.3107C170.603 20.3448 170.47 20.4072 170.354 20.4942C170.237 20.5812 170.139 20.691 170.066 20.8169L163.365 31.9799C163.256 32.1618 163.199 32.3699 163.199 32.5819C163.199 33.2119 163.691 33.7219 164.299 33.7219H177.7C177.906 33.7219 178.107 33.6619 178.281 33.5499C178.531 33.384 178.707 33.1281 178.772 32.8357C178.838 32.5432 178.789 32.2367 178.634 31.9799L171.933 20.8169C171.845 20.6699 171.725 20.545 171.581 20.4519H171.58ZM171 31.9999C170.735 31.9999 170.48 31.8945 170.293 31.707C170.105 31.5194 170 31.2651 170 30.9999C170 30.7346 170.105 30.4803 170.293 30.2928C170.48 30.1052 170.735 29.9999 171 29.9999C171.265 29.9999 171.52 30.1052 171.707 30.2928C171.895 30.4803 172 30.7346 172 30.9999C172 31.2651 171.895 31.5194 171.707 31.707C171.52 31.8945 171.265 31.9999 171 31.9999ZM171 22.9999C171.265 22.9999 171.52 23.1052 171.707 23.2928C171.895 23.4803 172 23.7346 172 23.9999V27.9999C172 28.2651 171.895 28.5194 171.707 28.707C171.52 28.8945 171.265 28.9999 171 28.9999C170.735 28.9999 170.48 28.8945 170.293 28.707C170.105 28.5194 170 28.2651 170 27.9999V23.9999C170 23.7346 170.105 23.4803 170.293 23.2928C170.48 23.1052 170.735 22.9999 171 22.9999Z" fill="black"/>
<path d="M212.708 19.7208L210.278 17.2908C210.091 17.1045 209.837 17 209.573 17C209.309 17 209.056 17.1045 208.868 17.2908L203.288 22.8708C203.196 22.9642 203.122 23.075 203.072 23.1969C203.023 23.3187 202.997 23.4492 202.998 23.5808V26.0008C202.998 26.266 203.104 26.5204 203.291 26.7079C203.479 26.8954 203.733 27.0008 203.998 27.0008H206.418C206.55 27.0016 206.68 26.9763 206.802 26.9266C206.924 26.8768 207.035 26.8035 207.128 26.7108L212.708 21.1308C212.894 20.9434 212.999 20.69 212.999 20.4258C212.999 20.1616 212.894 19.9082 212.708 19.7208ZM205.998 25.0008H204.998V24.0008L209.578 19.4208L210.578 20.4208L205.998 25.0008ZM209.998 27.0008C209.733 27.0008 209.479 27.1061 209.291 27.2937C209.104 27.4812 208.998 27.7356 208.998 28.0008C208.998 29.8573 208.261 31.6378 206.948 32.9505C205.635 34.2633 203.855 35.0008 201.998 35.0008H196.408L197.048 34.3708C197.142 34.2778 197.216 34.1672 197.267 34.0454C197.318 33.9235 197.344 33.7928 197.344 33.6608C197.344 33.5288 197.318 33.3981 197.267 33.2762C197.216 33.1544 197.142 33.0438 197.048 32.9508C196.069 31.9718 195.402 30.7245 195.132 29.3666C194.862 28.0086 195.001 26.6011 195.531 25.3219C196.06 24.0428 196.958 22.9495 198.109 22.1803C199.26 21.4112 200.614 21.0007 201.998 21.0008C202.263 21.0008 202.518 20.8954 202.705 20.7079C202.893 20.5204 202.998 20.266 202.998 20.0008C202.998 19.7356 202.893 19.4812 202.705 19.2937C202.518 19.1061 202.263 19.0008 201.998 19.0008C200.306 19.0064 198.649 19.4891 197.218 20.3935C195.788 21.298 194.641 22.5875 193.91 24.1141C193.179 25.6407 192.894 27.3424 193.086 29.024C193.279 30.7056 193.941 32.2988 194.998 33.6208L193.288 35.2908C193.149 35.4314 193.055 35.61 193.018 35.804C192.981 35.998 193.002 36.1987 193.078 36.3808C193.153 36.5634 193.281 36.7197 193.444 36.8301C193.608 36.9404 193.801 36.9998 193.998 37.0008H201.998C203.18 37.0008 204.35 36.768 205.442 36.3157C206.534 35.8634 207.526 35.2005 208.362 34.3648C209.198 33.529 209.861 32.5369 210.313 31.4449C210.765 30.353 210.998 29.1827 210.998 28.0008C210.998 27.7356 210.893 27.4812 210.705 27.2937C210.518 27.1061 210.263 27.0008 209.998 27.0008Z" fill="black"/>
<path d="M228 18C226.89 18 226 18.89 226 20V34C226 34.5304 226.211 35.0391 226.586 35.4142C226.961 35.7893 227.47 36 228 36H242C242.53 36 243.039 35.7893 243.414 35.4142C243.789 35.0391 244 34.5304 244 34V27H242V34H228V20H235V18H228ZM240.78 19C240.6 19.0015 240.428 19.0733 240.3 19.2L239.08 20.41L241.58 22.91L242.8 21.7C243.06 21.44 243.06 21 242.8 20.75L241.25 19.2C241.12 19.07 240.95 19 240.78 19ZM238.37 21.12L231 28.5V31H233.5L240.87 23.62L238.37 21.12Z" fill="black"/>
<path d="M261.75 16.5L261 17.25V19.5405C261.498 19.4854 262.002 19.4854 262.5 19.5405V18H276V25.5H273.44L271.5 27.4395V25.5H268.459C268.515 25.9985 268.515 26.5015 268.459 27H270V29.25L271.281 29.781L274.06 27H276.75L277.5 26.25V17.25L276.75 16.5H261.75Z" fill="black"/>
<path fill-rule="evenodd" clip-rule="evenodd" d="M264.625 30.6444C265.571 30.0252 266.292 29.1172 266.68 28.0555C267.069 26.9938 267.104 25.835 266.781 24.7516C266.458 23.6682 265.794 22.7181 264.887 22.0425C263.981 21.3669 262.881 21.002 261.75 21.002C260.619 21.002 259.519 21.3669 258.613 22.0425C257.706 22.7181 257.042 23.6682 256.719 24.7516C256.396 25.835 256.431 26.9938 256.82 28.0555C257.208 29.1172 257.929 30.0252 258.874 30.6444C257.716 31.1901 256.737 32.0539 256.051 33.1352C255.365 34.2164 255 35.4704 255 36.7509V37.5009H256.5V36.7509C256.546 35.3893 257.119 34.0988 258.099 33.1518C259.078 32.2048 260.388 31.6755 261.75 31.6755C263.112 31.6755 264.422 32.2048 265.401 33.1518C266.381 34.0988 266.954 35.3893 267 36.7509V37.5009H268.5V36.7509C268.5 35.4704 268.135 34.2164 267.449 33.1352C266.763 32.0539 265.784 31.1901 264.625 30.6444ZM261.75 30.0009C260.755 30.0009 259.802 29.6059 259.098 28.9026C258.395 28.1993 258 27.2455 258 26.2509C258 25.2564 258.395 24.3026 259.098 23.5993C259.802 22.896 260.755 22.5009 261.75 22.5009C262.745 22.5009 263.698 22.896 264.402 23.5993C265.105 24.3026 265.5 25.2564 265.5 26.2509C265.5 27.2455 265.105 28.1993 264.402 28.9026C263.698 29.6059 262.745 30.0009 261.75 30.0009Z" fill="black"/>
<path d="M291 21V22.7878H300.833V21H291ZM291 24.5756V26.3634H300.833V24.5756H291ZM306.196 24.665C306.107 24.665 305.928 24.7544 305.839 24.8438L304.945 25.7377L306.822 27.6149L307.716 26.721C307.895 26.5422 307.895 26.1846 307.716 26.0058L306.554 24.8438C306.464 24.7544 306.375 24.665 306.196 24.665ZM304.498 26.274L299.045 31.6374V33.5146H300.922L306.375 28.0618L304.498 26.274ZM291 28.1512V29.939H297.257V28.1512H291Z" fill="black"/>
<path d="M341.5 25H334.75C334.13 25 333.6 25.38 333.37 25.91L331.11 31.2C331.04 31.37 331 31.56 331 31.75V33C331 33.2652 331.105 33.5196 331.293 33.7071C331.48 33.8946 331.735 34 332 34H337.18L336.5 37.18V37.42C336.5 37.73 336.63 38 336.83 38.22C337.267 38.6516 337.971 38.6493 338.405 38.215L342.56 34.06C342.83 33.79 343 33.41 343 33V26.5C343 26.1022 342.842 25.7206 342.561 25.4393C342.279 25.158 341.898 25 341.5 25ZM331 21C331 20.7348 330.895 20.4804 330.707 20.2929C330.52 20.1054 330.265 20 330 20H324.82L325.5 16.82V16.59C325.5 16.28 325.37 16 325.17 15.79C324.734 15.3537 324.026 15.3537 323.59 15.79L319.44 19.94C319.17 20.21 319 20.59 319 21V27.5C319 27.8978 319.158 28.2794 319.439 28.5607C319.721 28.842 320.102 29 320.5 29H327.25C327.87 29 328.4 28.62 328.63 28.09L330.89 22.8C330.96 22.63 331 22.44 331 22.25V21Z" fill="black"/>
<path d="M369.669 34.1046L369.798 33.5H369.18H364C363.867 33.5 363.74 33.4473 363.646 33.3536C363.553 33.2598 363.5 33.1326 363.5 33V31.75C363.5 31.6294 363.526 31.505 363.571 31.3931L365.829 26.109C365.829 26.1087 365.829 26.1083 365.829 26.1079C365.984 25.7514 366.34 25.5 366.75 25.5H373.5C373.765 25.5 374.02 25.6054 374.207 25.7929C374.395 25.9804 374.5 26.2348 374.5 26.5V33C374.5 33.2717 374.387 33.5261 374.206 33.7064L370.051 37.8614C369.815 38.0984 369.433 38.1026 369.191 37.8731C369.062 37.7278 369 37.5766 369 37.42V37.2329L369.669 34.1046ZM356.331 19.8954L356.202 20.5H356.82H362C362.133 20.5 362.26 20.5527 362.354 20.6464C362.447 20.7402 362.5 20.8674 362.5 21V22.25C362.5 22.3706 362.474 22.495 362.429 22.6069L360.171 27.891C360.171 27.8913 360.171 27.8917 360.171 27.8921C360.016 28.2486 359.66 28.5 359.25 28.5H352.5C352.235 28.5 351.98 28.3946 351.793 28.2071C351.605 28.0196 351.5 27.7652 351.5 27.5V21C351.5 20.7283 351.613 20.4739 351.794 20.2936L355.944 16.1436C356.183 15.9039 356.571 15.9025 356.812 16.1394C356.932 16.2674 357 16.4258 357 16.59V16.7671L356.331 19.8954Z" stroke="black"/>
<path d="M395 36C396.997 35.9997 398.937 35.3353 400.515 34.1114C402.093 32.8874 403.219 31.1735 403.715 29.2394C404.212 27.3053 404.052 25.2608 403.259 23.428C402.467 21.5951 401.087 20.0778 399.338 19.1151C397.588 18.1523 395.568 17.7987 393.596 18.11C391.623 18.4213 389.81 19.3798 388.442 20.8345C387.074 22.2893 386.229 24.1576 386.039 26.1455C385.85 28.1334 386.327 30.1279 387.395 31.815L386 36L390.185 34.605C391.624 35.5188 393.295 36.0027 395 36Z" stroke="black" stroke-width="2" stroke-linecap="round" stroke-linejoin="round"/>
<path fill-rule="evenodd" clip-rule="evenodd" d="M421 15C419.409 15 417.883 15.6321 416.757 16.7574C415.632 17.8826 415 19.4087 415 21V33C415 34.5913 415.632 36.1174 416.757 37.2426C417.883 38.3679 419.409 39 421 39H433C434.591 39 436.117 38.3679 437.243 37.2426C438.368 36.1174 439 34.5913 439 33V21C439 19.4087 438.368 17.8826 437.243 16.7574C436.117 15.6321 434.591 15 433 15H421ZM431.94 19.938C431.1 19.5361 430.156 19.4047 429.238 19.5618C428.32 19.719 427.474 20.1569 426.815 20.8153C426.157 21.4737 425.719 22.3201 425.562 23.2379C425.405 24.1557 425.536 25.0996 425.938 25.9395L419.938 31.9395C419.657 32.221 419.499 32.6026 419.499 33.0005C419.499 33.3984 419.657 33.78 419.939 34.0613C420.22 34.3425 420.602 34.5004 421 34.5003C421.398 34.5002 421.779 34.342 422.06 34.0605L428.06 28.0605C428.9 28.4624 429.844 28.5938 430.762 28.4367C431.68 28.2795 432.526 27.8416 433.185 27.1832C433.843 26.5248 434.281 25.6784 434.438 24.7606C434.595 23.8428 434.464 22.8989 434.062 22.059L431.062 25.0605C430.781 25.342 430.399 25.5002 430.001 25.5003C429.603 25.5004 429.222 25.3425 428.94 25.0612C428.659 24.78 428.501 24.3984 428.5 24.0005C428.5 23.6026 428.658 23.221 428.94 22.9395L431.94 19.938Z" fill="black"/>
<path d="M457 32L453 28L454.41 26.59L457 29.17L463.59 22.58L465 24M459 16L450 20V26C450 31.55 453.84 36.74 459 38C464.16 36.74 468 31.55 468 26V20L459 16Z" fill="black"/>
<path d="M486 23C486 20.2386 488.239 18 491 18C493.761 18 496 20.2386 496 23C496 24.6356 495.215 26.0878 494 27C493.165 27.6279 491 29 491 32" stroke="black" stroke-width="3" stroke-linecap="round"/>
<path d="M491 38C491.828 38 492.5 37.3284 492.5 36.5C492.5 35.6716 491.828 35 491 35C490.172 35 489.5 35.6716 489.5 36.5C489.5 37.3284 490.172 38 491 38Z" fill="black"/>
<path d="M523 32C523.283 32 523.521 31.904 523.713 31.712C523.905 31.52 524.001 31.2827 524 31C524 30.7167 523.904 30.479 523.712 30.287C523.52 30.095 523.283 29.9993 523 30C522.717 30 522.479 30.096 522.287 30.288C522.095 30.48 521.999 30.7173 522 31C522 31.2833 522.096 31.521 522.288 31.713C522.48 31.905 522.717 32.0007 523 32ZM522 28H524V22H522V28ZM519.25 36L514 30.75V23.25L519.25 18H526.75L532 23.25V30.75L526.75 36H519.25Z" fill="black"/>
<path d="M551 19V27M554.464 21L547.536 25M547.536 21L554.464 25" stroke="#FD443A" stroke-width="1.33333" stroke-linecap="round" stroke-linejoin="round"/>
<rect x="567" y="15" width="24" height="24" rx="12" fill="black" fill-opacity="0.1"/>
<path d="M574 22L584 32M574 32L584 22" stroke="#808080" stroke-width="2" stroke-linecap="round" stroke-linejoin="round"/>
<path d="M609 25.0015L629 45.0009M609 45.0009L629 25.0015" stroke="#0F0F0F" stroke-width="3.99994" stroke-linecap="round" stroke-linejoin="round"/>
<path d="M659 30C659.283 30 659.521 29.904 659.713 29.712C659.905 29.52 660.001 29.2827 660 29C660 28.7167 659.904 28.479 659.712 28.287C659.52 28.095 659.283 27.9993 659 28C658.717 28 658.479 28.096 658.287 28.288C658.095 28.48 657.999 28.7173 658 29C658 29.2833 658.096 29.521 658.288 29.713C658.48 29.905 658.717 30.0007 659 30ZM658 26H660V20H658V26ZM649 37V19C649 18.45 649.196 17.979 649.588 17.587C649.98 17.195 650.451 16.9993 651 17H667C667.55 17 668.021 17.196 668.413 17.588C668.805 17.98 669.001 18.4507 669 19V31C669 31.55 668.804 32.021 668.412 32.413C668.02 32.805 667.549 33.0007 667 33H653L649 37Z" fill="black"/>
<path d="M699.573 22.0334C699.669 21.9432 699.781 21.8727 699.904 21.8258C700.027 21.779 700.157 21.7568 700.289 21.7606C700.42 21.7643 700.549 21.7938 700.669 21.8475C700.789 21.9012 700.897 21.9779 700.987 22.0734C701.078 22.1689 701.148 22.2812 701.195 22.4039C701.242 22.5266 701.264 22.6574 701.26 22.7887C701.257 22.92 701.227 23.0493 701.173 23.1692C701.12 23.2891 701.043 23.3972 700.947 23.4874L691.947 31.9874C691.762 32.1629 691.516 32.2608 691.26 32.2608C691.005 32.2608 690.759 32.1629 690.573 31.9874L681.572 23.4874C681.475 23.3978 681.396 23.2897 681.341 23.1693C681.285 23.049 681.254 22.9189 681.25 22.7865C681.245 22.6541 681.267 22.5221 681.313 22.3981C681.36 22.2742 681.431 22.1607 681.522 22.0644C681.613 21.9681 681.722 21.8908 681.843 21.837C681.964 21.7833 682.095 21.7541 682.227 21.7512C682.36 21.7483 682.491 21.7718 682.615 21.8202C682.738 21.8687 682.85 21.9411 682.945 22.0334L691.26 29.8854L699.573 22.0334Z" fill="#333333"/>
<path d="M731.573 22.0334C731.669 21.9432 731.781 21.8727 731.904 21.8258C732.027 21.779 732.157 21.7568 732.289 21.7606C732.42 21.7643 732.549 21.7938 732.669 21.8475C732.789 21.9012 732.897 21.9779 732.987 22.0734C733.078 22.1689 733.148 22.2812 733.195 22.4039C733.242 22.5266 733.264 22.6574 733.26 22.7887C733.257 22.92 733.227 23.0493 733.173 23.1692C733.12 23.2891 733.043 23.3972 732.947 23.4874L723.947 31.9874C723.762 32.1629 723.516 32.2608 723.26 32.2608C723.005 32.2608 722.759 32.1629 722.573 31.9874L713.572 23.4874C713.475 23.3978 713.396 23.2897 713.341 23.1693C713.285 23.049 713.254 22.9189 713.25 22.7865C713.245 22.6541 713.267 22.5221 713.313 22.3981C713.36 22.2742 713.431 22.1607 713.522 22.0644C713.613 21.9681 713.722 21.8908 713.843 21.837C713.964 21.7833 714.095 21.7541 714.227 21.7512C714.36 21.7483 714.491 21.7718 714.615 21.8202C714.738 21.8687 714.85 21.9411 714.945 22.0334L723.26 29.8854L731.573 22.0334Z" fill="#4D4D4D"/>
<path d="M750.499 26C751.327 26 751.999 25.3284 751.999 24.5C751.999 23.6716 751.327 23 750.499 23C749.671 23 748.999 23.6716 748.999 24.5C748.999 25.3284 749.671 26 750.499 26Z" fill="#4D4D4D"/>
<path d="M753.499 29L751.999 27L748.999 31H760.999L756.499 25L753.499 29Z" fill="#4D4D4D"/>
<path d="M762.999 19H746.999C745.896 19 744.999 19.897 744.999 21V33C744.999 34.103 745.896 35 746.999 35H762.999C764.102 35 764.999 34.103 764.999 33V21C764.999 19.897 764.102 19 762.999 19ZM746.999 33V21H762.999L763.001 33H746.999Z" fill="#4D4D4D"/>
<rect x="775.5" y="15.5" width="41" height="81" rx="4.5" stroke="#9747FF" stroke-dasharray="10 5"/>
<path d="M790.72 44.28L793.76 47.32L802.08 38.52" stroke="white" stroke-width="2" stroke-linecap="round" stroke-linejoin="round"/>
<path d="M788.72 74.28L791.76 77.32L800.08 68.52" stroke="#F7F7F7" stroke-width="2" stroke-linecap="round" stroke-linejoin="round"/>
<rect x="825.5" y="15.5" width="71" height="127" rx="4.5" stroke="#9747FF" stroke-dasharray="10 5"/>
<g filter="url(#filter0_d_1_2031)">
<rect width="40" height="40" rx="20" transform="matrix(0 -1 -1 0 881 71)" fill="#0F0F0F" shape-rendering="crispEdges"/>
<path d="M870.333 51L861.762 43M870.333 51L861.762 59M870.333 51H850.333" stroke="#F8F8F8" stroke-width="2.66667" stroke-linecap="round" stroke-linejoin="round"/>
</g>
<path d="M863 99L855.354 106.646C855.158 106.842 855.158 107.158 855.354 107.354L863 115" stroke="#4D4D4D" stroke-width="2.5" stroke-linecap="round"/>
<defs>
<filter id="filter0_d_1_2031" x="835" y="29" width="52" height="52" filterUnits="userSpaceOnUse" color-interpolation-filters="sRGB">
<feFlood flood-opacity="0" result="BackgroundImageFix"/>
<feColorMatrix in="SourceAlpha" type="matrix" values="0 0 0 0 0 0 0 0 0 0 0 0 0 0 0 0 0 0 127 0" result="hardAlpha"/>
<feOffset dy="4"/>
<feGaussianBlur stdDeviation="3"/>
<feComposite in2="hardAlpha" operator="out"/>
<feColorMatrix type="matrix" values="0 0 0 0 0 0 0 0 0 0 0 0 0 0 0 0 0 0 0.06 0"/>
<feBlend mode="normal" in2="BackgroundImageFix" result="effect1_dropShadow_1_2031"/>
<feBlend mode="normal" in="SourceGraphic" in2="effect1_dropShadow_1_2031" result="shape"/>
</filter>
</defs>
</svg>
