<svg width="32" height="32" viewBox="0 0 32 32" fill="none" xmlns="http://www.w3.org/2000/svg">
<path d="M13.2584 11.0265L16 2.58886L18.7416 11.0265L19.5024 10.7793L18.7416 11.0266C18.9022 11.521 19.363 11.8557 19.8828 11.8557H28.7548L21.5772 17.0705C21.1566 17.3761 20.9807 17.9177 21.1413 18.4121L21.9021 18.1649L21.1413 18.4122L23.8829 26.8498L16.7053 21.6351C16.2848 21.3295 15.7152 21.3295 15.2947 21.6351L8.11713 26.8498L10.8587 18.4122C11.0193 17.9177 10.8434 17.3761 10.4228 17.0705L3.24524 11.8557H12.1172C12.637 11.8557 13.0978 11.521 13.2584 11.0265Z" stroke="#808080" stroke-width="1.6"/>
</svg>
